# xmcd CD database file
#
# Track frame offsets:
#	150
#	89307
#	135610
#	157935
#	273735
#
# Disc length: 4693 seconds
#
# Revision: 0
# Processed by: cddbd v1.5.2PL0 Copyright (c) Steve Scherf et al.
# Submitted via: CDex 1.91
#
DISCID=3c125305
DTITLE=John Coltrane - Europe 1962: Paris, L'Olympia (November 17 1962, 2nd show)
DYEAR=1962
DGENRE=Jazz
TTITLE0=Bye bye blackbird
TTITLE1=The inch worm
TTITLE2=Every time we say goodbye
TTITLE3=Mr. P.C.
TTITLE4=Traneing in
EXTD=YEAR: 1962
EXTT0=
EXTT1=
EXTT2=
EXTT3=
EXTT4=
PLAYORDER=
